<?xml version="1.0" standalone="no"?>
<!DOCTYPE svg PUBLIC "-//W3C//DTD SVG 20010904//EN"
 "http://www.w3.org/TR/2001/REC-SVG-20010904/DTD/svg10.dtd">
<svg version="1.0" xmlns="http://www.w3.org/2000/svg"
 width="225.000000pt" height="225.000000pt" viewBox="0 0 225.000000 225.000000"
 preserveAspectRatio="xMidYMid meet">

<g transform="translate(0.000000,225.000000) scale(0.100000,-0.100000)"
fill="#000000" stroke="none">
<path d="M0 1125 l0 -1125 559 0 c484 0 560 2 571 15 9 10 9 15 1 15 -6 0 -11
14 -11 30 0 17 5 30 12 30 9 0 9 3 0 12 -15 15 -16 58 -2 58 6 0 5 8 -2 20
-18 29 -1 36 21 9 l19 -24 31 29 c17 17 31 28 31 25 0 -2 -11 -45 -25 -94 -14
-50 -25 -98 -25 -107 0 -17 32 -18 535 -18 l535 0 0 218 0 217 -245 -3 c-159
-2 -245 -6 -245 -13 0 -6 -5 -7 -11 -3 -7 4 -7 -2 1 -17 12 -21 14 -21 25 -6
16 22 51 22 59 1 4 -9 4 -19 1 -22 -3 -3 -5 -1 -5 5 0 21 -32 23 -50 3 -20
-23 -31 -26 -28 -8 2 7 -6 14 -17 14 -51 4 -50 4 -37 12 10 7 8 14 -7 31 -19
22 -19 22 -26 2 -3 -12 -10 -21 -15 -21 -15 0 -24 24 -12 28 7 2 12 11 12 20
0 12 -5 11 -21 -7 -16 -17 -18 -26 -10 -34 6 -6 11 -16 11 -21 0 -6 -8 -2 -16
9 -16 20 -16 19 -9 -4 6 -20 4 -23 -10 -17 -11 4 -26 -1 -39 -11 -11 -10 -7
-2 11 19 17 20 39 50 48 66 15 24 26 31 66 35 64 8 120 38 177 95 53 53 55 56
60 133 4 58 -11 102 -48 144 -17 19 -16 27 42 210 51 167 58 197 53 245 -11
99 -27 164 -53 213 -26 49 -127 151 -168 169 -12 6 -30 29 -40 52 -28 60 -118
146 -195 184 -73 35 -87 39 -70 18 7 -8 -17 -2 -59 15 -67 27 -196 59 -240 59
-19 0 -20 6 -20 110 l0 110 -560 0 -560 0 0 -1125z m1265 862 c44 -11 111 -33
149 -49 77 -31 80 -32 71 -18 -9 15 1 12 44 -9 48 -25 146 -130 162 -175 8
-21 24 -39 43 -49 47 -22 123 -94 151 -141 30 -52 55 -153 55 -230 0 -86 -100
-416 -139 -462 -29 -32 -33 -41 -45 -96 -4 -16 -11 -28 -17 -28 -6 0 -8 9 -4
21 4 12 8 65 8 118 2 81 -1 101 -19 131 -13 22 -22 55 -23 90 -1 30 -6 73 -11
95 -5 22 -10 47 -10 55 0 23 35 -18 64 -75 14 -27 26 -44 26 -37 0 22 -37 86
-64 111 -14 14 -26 20 -26 15 0 -5 -11 18 -25 50 l-24 60 28 120 c16 67 28
122 26 124 -1 2 -28 -43 -58 -100 -47 -88 -58 -103 -79 -101 -12 1 -114 5
-225 9 l-203 7 0 298 0 299 33 -6 c17 -3 68 -15 112 -27z m367 -553 c-18 -66
-18 -70 -1 -109 27 -61 46 -142 54 -231 5 -44 15 -90 24 -104 12 -18 16 -48
15 -120 0 -87 -4 -102 -38 -182 -55 -127 -133 -247 -181 -278 -83 -55 -226
-98 -350 -107 -153 -10 -389 67 -461 151 -53 62 -143 251 -155 326 -14 82 -5
185 18 219 14 20 18 48 19 126 1 82 21 206 36 220 7 7 217 35 348 46 130 11
476 7 581 -7 l46 -6 28 65 c16 37 31 65 32 63 2 -2 -5 -34 -15 -72z m-1182
-641 c-21 -27 -26 -53 -11 -53 5 0 15 10 24 23 15 22 15 22 22 -15 4 -21 11
-38 15 -38 10 0 62 -111 55 -118 -2 -3 -18 1 -35 8 -17 7 -34 9 -38 6 -10 -11
27 -35 65 -42 32 -6 50 -20 40 -31 -11 -10 -116 28 -146 53 -87 73 -98 175
-27 252 l21 23 17 -21 c17 -21 17 -23 -2 -47z m1408 17 c35 -52 31 -126 -11
-182 -33 -44 -94 -81 -156 -93 -52 -11 -34 15 22 32 45 13 65 28 53 40 -3 3
-19 0 -36 -7 -17 -7 -33 -11 -35 -8 -9 9 43 115 59 121 9 4 16 18 16 32 0 29
8 32 26 8 20 -29 30 -4 11 28 -13 23 -14 35 -6 50 13 26 29 20 57 -21z m-104
-468 c63 -43 113 -124 131 -212 l7 -35 -24 22 c-32 30 -100 53 -158 53 -38 0
-55 -6 -93 -35 -38 -29 -47 -32 -57 -20 -6 8 -32 24 -56 35 -24 12 -44 28 -44
36 0 8 19 23 43 33 53 23 112 87 128 140 l12 40 36 -15 c20 -8 53 -27 75 -42z
m61 28 c3 -5 1 -10 -4 -10 -6 0 -11 5 -11 10 0 6 2 10 4 10 3 0 8 -4 11 -10z
m-10 -39 c-6 -5 -25 10 -25 20 0 5 6 4 14 -3 8 -7 12 -15 11 -17z m-252 -16
c-4 -14 -30 -14 -30 0 0 7 7 12 16 10 9 -1 15 -6 14 -10z m-476 -68 l41 -22
-20 -25 -20 -25 -34 38 c-55 60 -42 73 33 34z m163 10 c0 -7 -16 -28 -35 -47
l-34 -33 -20 24 c-19 24 -19 24 2 36 20 11 18 11 -14 6 -20 -3 -39 -1 -42 4
-3 5 19 8 49 7 30 -1 57 2 60 7 8 14 34 11 34 -4z m-330 -82 l-23 -24 27 -12
c26 -12 35 -29 16 -29 -6 0 -22 7 -36 16 l-25 17 27 28 c15 16 30 29 33 29 2
0 -6 -11 -19 -25z m-19 -82 c26 -15 38 -33 24 -33 -14 0 -65 32 -65 40 0 14 8
13 41 -7z"/>
<path d="M1414 1839 c61 -78 111 -194 126 -293 7 -50 8 -51 9 -10 2 86 -69
252 -136 315 l-37 34 38 -46z"/>
<path d="M1238 1792 c9 -9 25 -29 35 -42 l18 -25 -12 25 c-14 30 -39 60 -51
60 -4 0 0 -8 10 -18z"/>
<path d="M1135 1633 c4 -23 44 -103 45 -90 0 4 -7 22 -16 38 -8 17 -13 33 -11
35 7 7 47 -60 68 -114 10 -26 18 -40 19 -31 0 25 -57 133 -85 159 -23 22 -24
22 -20 3z"/>
<path d="M1489 1565 c8 -24 17 -42 19 -40 6 5 -18 74 -27 80 -5 2 -1 -15 8
-40z"/>
<path d="M1780 1561 c19 -17 38 -31 42 -31 4 0 23 -24 43 -52 19 -29 35 -48
35 -42 0 14 -51 84 -76 105 -10 8 -32 23 -49 33 -28 16 -28 15 5 -13z"/>
<path d="M1512 1490 c0 -14 2 -19 5 -12 2 6 2 18 0 25 -3 6 -5 1 -5 -13z"/>
<path d="M1863 1415 c14 -27 28 -65 32 -83 4 -18 9 -31 12 -28 9 9 -27 110
-48 136 -18 22 -17 19 4 -25z"/>
<path d="M1732 1366 c21 -12 48 -31 60 -42 20 -16 20 -15 -2 10 -14 15 -37 34
-52 42 -43 22 -47 16 -6 -10z"/>
<path d="M1726 1334 c28 -27 61 -69 73 -92 25 -49 34 -55 20 -13 -13 36 -69
103 -112 133 -21 14 -14 4 19 -28z"/>
<path d="M1785 1145 c4 -11 11 -45 16 -75 l8 -55 -4 64 c-2 35 -9 68 -16 75
-9 8 -10 7 -4 -9z"/>
<path d="M757 1016 c-178 -49 -235 -293 -95 -411 49 -41 90 -55 163 -55 79 0
125 21 178 79 31 35 57 92 57 129 0 8 20 12 65 12 45 0 65 -4 65 -12 0 -37 26
-94 57 -129 54 -60 99 -79 184 -79 64 0 79 4 135 35 94 53 102 67 101 178 -2
81 -5 98 -30 140 -84 142 -265 164 -380 46 -31 -33 -51 -64 -59 -94 l-12 -45
-62 0 -62 0 -11 45 c-29 117 -171 195 -294 161z m181 -49 c48 -31 92 -101 99
-157 12 -87 -42 -185 -121 -221 -49 -22 -134 -25 -179 -5 -139 59 -172 253
-60 358 68 65 184 76 261 25z m570 17 c37 -14 122 -94 122 -113 0 -5 2 -15 5
-23 4 -10 -21 -13 -127 -13 -82 0 -147 -5 -170 -13 l-37 -13 34 -35 c39 -39
85 -45 124 -17 l24 16 -24 11 -24 10 28 4 c15 2 27 8 27 13 0 5 26 9 57 9 l57
0 -39 -41 c-32 -33 -35 -39 -15 -29 14 7 39 23 57 36 33 25 43 19 35 -23 -3
-14 -12 -23 -23 -23 -10 0 -34 -10 -55 -22 -20 -12 -64 -29 -97 -38 -34 -9
-65 -24 -70 -32 -13 -20 0 -68 18 -68 8 0 12 6 9 13 -3 8 2 14 10 14 8 0 13
-4 10 -9 -3 -5 7 -6 23 -2 42 9 128 71 143 102 7 15 15 22 17 15 7 -18 -36
-76 -81 -109 -37 -26 -49 -29 -118 -29 -69 0 -80 3 -120 30 -85 61 -118 170
-78 262 12 28 32 60 44 72 61 57 158 76 234 45z m27 -332 c-3 -3 -11 0 -18 7
-9 10 -8 11 6 5 10 -3 15 -9 12 -12z m-45 3 c0 -2 -14 -12 -31 -21 -17 -8 -28
-11 -25 -6 3 6 0 13 -6 16 -7 3 -3 3 10 0 12 -3 22 -1 22 5 0 6 7 11 15 11 8
0 15 -2 15 -5z"/>
<path d="M851 905 c9 -9 99 -54 99 -50 0 9 -75 55 -89 55 -8 0 -12 -2 -10 -5z"/>
<path d="M730 831 c-12 -9 -11 -11 8 -11 12 0 22 -4 22 -9 0 -5 12 -11 28 -13
l27 -4 -24 -10 -24 -11 24 -16 c39 -28 86 -22 121 15 26 28 32 30 50 19 13 -8
24 -9 30 -3 23 23 -230 65 -262 43z"/>
<path d="M660 780 c0 -5 15 -17 33 -26 l32 -17 -24 27 c-25 27 -41 33 -41 16z"/>
<path d="M1500 930 c-11 -7 -3 -10 28 -10 26 0 41 4 37 10 -8 13 -45 13 -65 0z"/>
<path d="M1077 626 c-9 -24 -10 -23 14 -29 14 -4 18 -2 11 6 -5 7 -11 19 -14
26 -3 12 -6 11 -11 -3z"/>
<path d="M1335 516 c-39 -27 -131 -47 -240 -53 -115 -6 -155 -15 -155 -34 0
-7 7 -8 18 -4 9 4 68 12 131 16 63 5 132 14 154 20 34 9 42 8 61 -10 12 -12
25 -21 28 -21 5 0 38 85 38 97 0 7 -17 2 -35 -11z m-1 -41 c-4 -8 -10 -12 -15
-9 -11 6 -2 24 11 24 5 0 7 -7 4 -15z"/>
<path d="M1826 537 c3 -10 9 -15 12 -12 3 3 0 11 -7 18 -10 9 -11 8 -5 -6z"/>
<path d="M1770 500 c-8 -5 -10 -10 -5 -10 6 0 17 5 25 10 8 5 11 10 5 10 -5 0
-17 -5 -25 -10z"/>
</g>
</svg>
