<?xml version="1.0" standalone="no"?>
<!DOCTYPE svg PUBLIC "-//W3C//DTD SVG 20010904//EN"
 "http://www.w3.org/TR/2001/REC-SVG-20010904/DTD/svg10.dtd">
<svg version="1.0" xmlns="http://www.w3.org/2000/svg"
 width="678.000000pt" height="452.000000pt" viewBox="0 0 678.000000 452.000000"
 preserveAspectRatio="xMidYMid meet">

<g transform="translate(0.000000,452.000000) scale(0.100000,-0.100000)"
fill="#000000" stroke="none">
<path d="M0 2260 l0 -2260 399 0 398 0 6 43 c10 80 47 292 64 367 11 48 25 81
38 92 12 11 15 17 7 18 -7 0 -11 4 -8 8 2 4 7 26 10 47 3 22 13 83 22 135 10
52 18 138 19 190 3 152 25 260 54 260 38 0 78 82 125 250 14 52 31 110 37 128
13 39 13 38 -49 72 -54 29 -53 18 -22 190 10 58 23 139 30 180 18 120 21 130
36 130 8 0 19 -12 25 -27 6 -16 15 -36 20 -45 5 -10 9 -23 9 -29 0 -5 11 -35
25 -65 14 -30 25 -57 25 -60 0 -8 27 -70 54 -125 19 -40 21 -50 11 -70 -7 -13
-33 -90 -58 -170 -44 -142 -69 -256 -88 -409 -5 -41 -18 -106 -29 -145 -10
-38 -22 -92 -25 -120 -4 -27 -16 -84 -26 -125 -11 -41 -24 -118 -29 -170 -6
-52 -17 -115 -25 -140 -21 -66 -85 -354 -85 -384 l0 -26 2889 0 2890 0 5 43
c2 23 9 83 15 133 8 62 11 772 11 2218 l0 2126 -285 0 -285 0 0 -40 c0 -29 4
-40 15 -40 12 0 15 -15 17 -67 2 -103 3 -117 11 -129 4 -7 11 -44 17 -84 6
-40 13 -82 15 -94 7 -31 -34 -56 -103 -62 -31 -3 -108 -6 -170 -8 l-112 -2
-44 -47 c-23 -26 -51 -47 -61 -47 -18 0 -104 -37 -115 -49 -8 -9 -92 -49 -120
-56 -14 -4 -34 -15 -44 -24 -14 -12 -20 -13 -23 -3 -3 7 -11 18 -18 25 -21 22
-26 46 -55 322 -6 50 -17 131 -25 180 -15 91 -23 161 -24 203 l-1 22 -569 0
-570 0 -6 -47 c-3 -27 -10 -68 -15 -93 -5 -25 -11 -70 -15 -100 -8 -81 -68
-487 -114 -785 -11 -71 -25 -161 -31 -200 -29 -204 -44 -304 -67 -435 -13 -80
-26 -154 -27 -165 -2 -11 -8 -47 -15 -80 -7 -33 -19 -96 -27 -140 -8 -44 -20
-98 -25 -120 -6 -22 -12 -50 -13 -62 -1 -13 -6 -26 -11 -30 -4 -5 -4 62 0 147
10 191 8 293 -6 390 -6 41 -11 103 -10 138 1 34 -3 62 -8 62 -5 0 -8 26 -6 60
3 42 1 60 -8 60 -7 0 -8 3 -2 8 6 4 11 23 13 42 1 23 -1 30 -7 22 -5 -9 -8 -4
-7 16 1 17 4 28 8 26 4 -3 5 25 3 60 -3 40 1 84 10 113 20 65 19 132 -5 240
-11 51 -17 100 -14 110 5 15 4 15 -5 3 -7 -11 -9 12 -6 80 3 52 2 227 -1 388
l-7 292 -1903 0 -1904 0 0 -2260z m2738 1618 c-6 -17 -36 -34 -45 -24 -4 4 1
14 11 22 24 17 39 18 34 2z m323 -8 c26 -7 45 -8 52 -2 16 14 108 2 114 -14 3
-8 15 -12 31 -9 92 14 102 14 102 -2 0 -15 2 -14 18 0 20 19 62 23 62 7 0 -5
18 -10 40 -10 48 0 53 -15 8 -26 l-33 -7 33 -10 c28 -9 32 -14 32 -43 0 -23
-5 -34 -17 -37 -13 -3 -11 -5 6 -6 20 -1 22 -3 11 -16 -7 -9 -10 -18 -6 -22 3
-3 6 -1 6 6 0 7 5 9 10 6 14 -9 3 -24 -24 -35 -18 -7 -15 -9 20 -15 41 -7 41
-8 28 -33 -11 -22 -11 -27 4 -38 14 -10 15 -15 5 -25 -17 -17 -16 -29 2 -29 9
0 18 -7 22 -16 5 -13 8 -13 15 -2 7 10 12 8 25 -9 8 -13 23 -23 33 -23 29 0
32 -27 4 -34 -13 -4 -24 -10 -24 -15 0 -5 -23 -15 -50 -22 -29 -7 -61 -24 -74
-38 -65 -69 -86 -95 -86 -102 0 -5 -7 -9 -15 -9 -8 0 -15 -7 -15 -15 0 -8 -6
-12 -14 -9 -15 6 -30 -73 -20 -112 4 -14 1 -31 -6 -40 -11 -12 -10 -21 7 -52
12 -20 24 -53 27 -72 8 -39 19 -67 47 -122 21 -42 24 -95 6 -119 -23 -30 -57
-39 -164 -46 -129 -7 -143 0 -118 61 10 24 21 36 29 33 8 -3 18 5 25 20 12 27
6 47 -8 24 -5 -7 -10 -11 -13 -9 -12 8 -58 -62 -58 -89 0 -57 29 -73 110 -57
29 6 33 5 23 -7 -9 -12 -1 -14 50 -14 37 -1 61 -5 60 -11 -1 -5 7 -15 18 -22
15 -10 19 -9 19 3 0 11 6 12 23 6 25 -9 25 -27 -1 -24 -15 1 -15 0 1 -12 15
-11 16 -16 6 -33 -7 -11 -25 -27 -41 -36 -15 -10 -28 -21 -28 -27 0 -5 -5 -9
-11 -9 -6 0 -9 6 -6 14 9 23 -42 26 -123 5 -45 -11 -76 -15 -78 -9 -2 6 -10
10 -18 10 -8 0 -14 6 -14 13 0 9 -3 8 -9 -2 -5 -8 -11 -9 -15 -3 -3 6 -2 13 4
17 18 11 10 35 -16 47 -22 11 -28 10 -40 -7 -10 -14 -14 -15 -14 -4 0 12 -2
12 -9 -1 -6 -8 -7 -26 -4 -40 4 -24 2 -26 -28 -25 -18 0 -34 -5 -36 -11 -5
-15 26 -46 38 -39 5 4 9 1 9 -4 0 -6 -8 -11 -19 -11 -28 0 -33 -36 -7 -49 16
-8 31 -8 60 3 38 13 41 13 85 -19 25 -18 60 -35 76 -38 27 -4 28 -5 8 -12 -13
-4 -19 -13 -16 -21 7 -20 -51 -19 -71 1 -20 21 -29 19 -23 -5 6 -22 -6 -34
-43 -45 -25 -8 -25 -7 -7 13 11 12 14 22 8 26 -6 4 -8 13 -5 20 7 17 -33 46
-62 46 -36 0 -68 35 -86 92 -11 37 -16 45 -17 27 -1 -36 26 -112 50 -138 34
-37 13 -36 -24 0 -34 34 -77 112 -77 141 0 8 -9 23 -20 33 -22 19 -25 15 -11
-13 5 -9 14 -42 21 -72 7 -30 17 -61 23 -68 14 -18 1 -27 -18 -12 -29 24 -56
103 -61 179 -2 42 -7 84 -10 94 -3 11 0 17 10 17 8 0 17 -8 19 -17 3 -10 5 12
6 48 1 53 -2 68 -15 73 -12 5 -14 15 -9 49 5 39 5 41 -10 23 -15 -19 -15 -19
-15 5 0 32 -62 83 -90 74 -16 -5 -20 -2 -20 14 0 12 5 21 11 21 6 0 9 9 6 20
-3 11 0 20 6 21 7 0 2 5 -11 11 -13 6 -21 18 -20 27 2 9 -4 25 -14 35 -10 11
-18 26 -18 33 0 7 -5 13 -11 13 -7 0 -8 11 -3 32 3 18 8 52 10 76 1 24 11 55
21 70 17 26 18 26 21 6 2 -12 12 -30 24 -40 19 -18 20 -18 45 10 13 16 20 32
15 35 -5 3 -1 14 9 24 17 18 17 18 24 -2 3 -12 12 -21 18 -21 7 0 4 -7 -6 -15
-13 -9 -17 -20 -12 -34 7 -22 -10 -30 -18 -8 -2 6 -7 -3 -12 -21 -4 -21 -3
-38 4 -45 6 -6 11 -19 11 -29 0 -10 7 -18 15 -18 8 0 15 -4 15 -9 0 -5 8 -12
18 -14 9 -3 -3 -6 -28 -7 -25 -1 -36 -5 -26 -7 15 -4 16 -7 5 -14 -13 -8 31
-14 96 -12 11 0 22 -3 25 -6 10 -14 219 -32 239 -22 10 6 22 7 26 3 4 -4 6 0
3 8 -3 8 2 21 9 28 9 9 10 18 4 26 -6 7 -5 17 4 29 12 16 13 16 26 0 10 -12
11 -17 2 -20 -9 -3 -6 -16 9 -44 21 -40 32 -48 41 -26 5 13 3 41 -11 130 -8
54 -8 57 12 57 25 1 56 22 56 39 0 6 -10 11 -21 11 -12 0 -38 17 -58 38 -28
29 -46 38 -76 40 -21 2 -43 6 -48 9 -6 4 -7 1 -2 -6 5 -10 -2 -12 -31 -11 -66
4 -86 1 -78 -12 6 -9 3 -9 -9 0 -9 8 -25 11 -36 7 -11 -3 -30 -1 -41 5 -13 7
-26 8 -33 2 -7 -5 -20 -12 -29 -15 -16 -6 -17 2 -16 81 0 48 -3 96 -7 106 -6
14 -5 17 3 12 8 -5 12 0 12 13 0 11 -9 25 -21 32 -14 7 -19 17 -16 30 3 11 -2
24 -12 32 -24 16 -53 62 -50 79 1 7 1 22 0 32 -1 20 -1 20 -16 0 -14 -18 -14
-18 -15 9 0 16 -4 26 -10 22 -18 -11 -11 9 13 36 12 14 33 31 45 38 13 7 21
15 18 18 -2 3 16 16 41 29 43 23 46 24 59 7 13 -17 14 -17 19 2 5 17 16 20 81
23 41 1 93 -2 115 -8z m-346 -60 c-3 -5 -12 -10 -18 -10 -7 0 -6 4 3 10 19 12
23 12 15 0z m3393 -58 c2 -7 -3 -12 -12 -12 -9 0 -16 7 -16 16 0 17 22 14 28
-4z m-257 -43 c7 -15 9 -53 4 -119 -4 -62 -3 -124 5 -167 12 -77 8 -93 -40
-158 -17 -22 -37 -54 -46 -71 -13 -28 -21 -32 -70 -37 -30 -3 -68 -13 -85 -21
-17 -9 -35 -13 -40 -10 -20 12 -40 69 -50 143 -11 81 -4 113 33 153 40 41 70
99 65 124 -4 22 0 28 30 40 18 8 38 25 43 38 5 13 26 42 48 65 45 47 84 55
103 20z m286 -53 c-2 -6 -11 -12 -19 -14 -17 -3 -33 41 -22 60 9 14 47 -29 41
-46z m-3494 19 c-3 -9 -8 -14 -10 -11 -3 3 -2 9 2 15 9 16 15 13 8 -4z m2923
-38 c8 3 14 0 14 -6 0 -6 9 -11 19 -11 11 0 23 -4 26 -10 3 -5 1 -10 -6 -10
-6 0 -20 -9 -30 -21 -10 -11 -23 -18 -28 -14 -6 3 -16 -6 -23 -22 l-11 -28
-13 50 c-14 57 -17 109 -7 119 4 3 15 -7 25 -23 12 -18 25 -28 34 -24z m-1966
-32 c0 -8 -4 -15 -8 -15 -5 0 -9 7 -9 15 0 8 4 15 9 15 4 0 8 -7 8 -15z m-870
-45 c0 -5 -5 -10 -11 -10 -5 0 -7 5 -4 10 3 6 8 10 11 10 2 0 4 -4 4 -10z
m3563 -299 c2 -21 2 -50 0 -65 l-6 -27 -11 23 c-6 12 -26 27 -45 32 -29 8 -35
7 -50 -13 -18 -23 -31 -19 -31 9 0 23 28 46 75 63 59 21 62 20 68 -22z m-2675
5 c-20 -15 -24 -36 -6 -36 6 0 4 -8 -7 -20 -17 -19 -16 -19 21 -13 22 3 36 3
33 -1 -4 -4 -32 -9 -63 -12 -31 -2 -68 -9 -83 -15 -28 -10 -110 -22 -85 -13 6
3 12 11 12 17 1 19 88 79 96 66 4 -7 9 -7 13 -2 7 12 62 42 76 42 6 0 2 -6 -7
-13z m-763 -25 c-3 -6 -11 -11 -17 -11 -6 0 -6 6 2 15 14 17 26 13 15 -4z
m-551 -56 c-1 -5 6 -15 15 -22 13 -9 9 -10 -19 -8 -19 2 -38 4 -42 4 -5 1 -5
14 1 39 2 9 46 -4 45 -13z m780 4 c-4 -7 2 -9 17 -5 13 3 18 3 10 0 -11 -5
-11 -8 0 -16 10 -7 8 -8 -9 -5 -19 5 -21 3 -11 -9 9 -11 7 -14 -15 -14 -14 0
-26 -4 -26 -10 0 -5 -11 -10 -25 -10 -14 0 -25 -4 -25 -10 0 -5 3 -9 8 -9 18
3 29 -2 29 -14 0 -7 -9 -14 -20 -14 -26 -2 -33 -11 -19 -25 9 -9 12 -9 12 0 0
7 5 12 11 12 5 0 8 -4 4 -9 -3 -5 5 -11 17 -14 20 -3 18 -6 -16 -21 -21 -10
-46 -17 -55 -16 -9 0 -34 2 -56 3 -31 2 -40 7 -39 20 1 9 -3 17 -10 18 -6 0
11 6 38 14 28 7 56 11 63 8 7 -3 13 0 13 6 0 6 -4 11 -10 11 -5 0 -10 4 -10
10 0 5 7 7 15 4 8 -4 15 -1 15 5 0 11 -41 9 -92 -6 -13 -3 -18 1 -18 16 0 12
3 20 8 19 10 -4 52 39 45 46 -4 3 2 6 13 6 13 0 15 3 6 8 -7 5 21 9 63 10 52
1 74 -2 69 -9z m-334 -33 c0 -3 -4 -8 -10 -11 -5 -3 -10 -1 -10 4 0 6 5 11 10
11 6 0 10 -2 10 -4z m831 -3 c0 -5 2 -15 4 -25 2 -13 -7 -17 -42 -20 -55 -4
-69 3 -46 24 25 22 82 36 84 21z m2706 -15 c-3 -8 -6 -5 -6 6 -1 11 2 17 5 13
3 -3 4 -12 1 -19z m-4005 -94 c-1 -60 1 -75 10 -66 6 6 13 17 14 24 3 13 26
80 31 87 2 2 12 -4 23 -14 15 -13 20 -31 20 -67 0 -45 12 -64 23 -35 3 6 6 -1
7 -18 2 -44 6 -68 15 -87 5 -14 2 -18 -13 -18 -12 0 -25 -8 -31 -17 -21 -37
-54 7 -77 102 l-7 30 -7 -30 -7 -30 -21 48 c-26 57 -34 133 -14 129 8 -1 11 2
8 7 -4 5 -2 12 4 16 6 4 7 11 4 17 -4 6 -1 9 7 6 11 -4 13 -24 11 -84z m1148
46 c0 -5 6 -7 14 -4 7 3 30 -2 50 -10 32 -13 78 -12 141 4 23 6 28 -1 9 -15
-10 -8 -31 -15 -46 -15 -15 0 -39 -5 -53 -12 -19 -9 -28 -9 -37 0 -7 7 -23 12
-37 12 l-26 0 27 -18 c22 -15 25 -21 15 -31 -9 -10 -9 -11 4 -6 9 3 40 2 69
-3 43 -8 63 -6 104 8 28 9 51 23 51 31 0 8 10 13 25 13 24 0 25 -2 24 -64 -1
-48 -5 -66 -19 -76 -14 -11 -16 -22 -11 -61 5 -32 4 -43 -3 -34 -6 10 -9 -2
-10 -40 0 -30 0 -78 -1 -108 -1 -30 4 -66 10 -82 9 -20 9 -33 1 -47 -6 -12
-11 -29 -11 -40 0 -38 -78 -162 -102 -162 -5 0 5 27 22 60 29 57 31 67 28 160
-2 60 -7 100 -13 100 -14 0 -65 48 -65 61 0 6 -18 27 -40 46 -26 24 -44 51
-51 77 -6 23 -15 50 -19 61 -9 22 -34 95 -55 163 -7 23 -9 42 -4 42 5 0 9 -4
9 -10z m120 6 c0 -3 -4 -8 -10 -11 -5 -3 -10 -1 -10 4 0 6 5 11 10 11 6 0 10
-2 10 -4z m-720 -10 c0 -2 -7 -7 -16 -10 -8 -3 -12 -2 -9 4 6 10 25 14 25 6z
m3120 -26 c26 -26 26 -60 0 -60 -11 0 -47 -25 -80 -55 -33 -30 -64 -55 -70
-55 -16 0 -42 61 -36 84 3 12 -1 32 -10 44 -8 12 -12 27 -8 33 5 8 10 6 16 -5
5 -9 17 -16 26 -16 21 1 52 23 52 39 0 20 88 13 110 -9z m-3479 -162 c5 -10 9
-26 8 -35 0 -12 -2 -13 -6 -5 -3 7 -16 25 -29 39 -17 18 -21 30 -14 37 5 5 10
19 11 31 1 12 5 7 11 -15 5 -19 14 -43 19 -52z m-21 -73 c0 -7 6 -18 13 -22
22 -14 67 -112 67 -146 0 -34 -15 -57 -36 -57 -6 0 -29 17 -51 38 -32 31 -37
41 -26 51 14 13 8 35 -8 26 -5 -4 -9 1 -9 9 0 9 7 16 15 16 16 0 20 20 6 36
-4 5 -11 21 -15 37 -6 24 -4 27 19 27 15 0 25 -6 25 -15z m-69 -35 c10 -6 19
-17 19 -25 0 -23 -16 -18 -34 10 -18 27 -15 30 15 15z m1203 -116 c-4 -17 -25
-31 -72 -51 -8 -3 -10 0 -6 10 3 8 14 17 25 20 20 5 27 51 9 62 -5 3 -10 14
-10 23 0 13 8 9 29 -14 19 -20 28 -39 25 -50z m2153 -46 c-3 -8 -6 -5 -6 6 -1
11 2 17 5 13 3 -3 4 -12 1 -19z m-3 -32 c8 -13 7 -20 -5 -29 -9 -7 -19 -25
-23 -42 -12 -48 -30 -85 -41 -82 -5 2 -11 24 -13 49 -2 38 1 49 19 61 11 9 18
20 14 27 -8 13 14 42 28 37 6 -2 15 -11 21 -21z m-2097 -12 c2 -13 1 -15 -4
-4 -3 8 -11 19 -17 23 -7 6 -6 7 4 4 8 -2 16 -12 17 -23z m18 -116 c-11 -36
-22 -41 -17 -8 2 16 9 30 14 30 5 0 6 -10 3 -22z m-185 -67 c0 -12 -45 -22
-64 -15 -9 3 -16 1 -16 -5 0 -6 -11 -11 -25 -11 -13 0 -35 -5 -48 -11 -21 -9
-28 -7 -50 14 l-25 26 27 3 c63 7 201 6 201 -1z m-801 -157 c1 -50 6 -69 32
-107 17 -26 35 -44 40 -41 5 3 9 2 8 -3 -4 -21 2 -33 17 -33 8 0 13 -3 11 -7
-2 -5 15 -24 37 -43 23 -19 35 -27 27 -17 -8 9 -11 20 -8 23 6 6 19 -3 60 -41
12 -11 27 -19 32 -17 6 1 2 -4 -8 -12 -15 -12 -16 -15 -2 -26 13 -11 14 -10 9
4 -8 22 20 21 46 -1 24 -21 26 -33 3 -33 -12 0 -8 -7 13 -25 20 -17 38 -24 59
-21 34 3 98 39 89 49 -4 4 -1 13 6 22 10 12 10 18 -1 33 -13 16 -13 16 6 2 11
-8 22 -16 24 -17 2 -1 -2 -11 -10 -20 -7 -10 5 -1 27 20 34 32 51 40 103 47
144 20 256 90 279 174 14 48 73 121 84 103 9 -17 -16 -194 -37 -257 -8 -25
-41 -148 -74 -275 -33 -126 -93 -356 -133 -510 -41 -154 -101 -390 -133 -525
-32 -135 -62 -249 -66 -253 -3 -5 -7 114 -8 265 -1 150 -6 302 -11 338 -9 67
-41 186 -86 321 -18 56 -22 82 -15 100 10 28 68 103 133 172 l44 47 -58 61
c-41 43 -63 59 -75 55 -10 -3 -59 -6 -110 -7 -92 -2 -92 -2 -126 -38 -60 -65
-61 -67 -40 -98 28 -40 63 -139 63 -176 0 -18 -18 -65 -41 -107 -80 -147 -74
-114 -155 -787 -8 -73 -13 -137 -10 -142 4 -5 3 -12 -2 -15 -10 -6 -47 241
-68 449 -8 83 -22 218 -30 300 -16 156 -37 564 -36 695 1 158 35 406 64 470
l11 25 8 -30 c3 -16 7 -57 8 -91z m716 94 c3 -3 -1 -8 -10 -11 -8 -4 -15 -3
-15 1 0 4 -38 5 -85 3 -53 -2 -85 1 -85 7 0 11 185 11 195 0z m-512 -69 c-4
-13 -9 -17 -15 -11 -11 11 -3 32 12 32 4 0 6 -9 3 -21z m167 -31 c0 -5 -7 -3
-15 6 -8 8 -15 18 -15 22 0 3 7 1 15 -6 8 -7 15 -17 15 -22z m-153 0 c-3 -8
-6 -5 -6 6 -1 11 2 17 5 13 3 -3 4 -12 1 -19z m2832 -30 c1 -5 -3 -8 -9 -8 -5
0 -10 12 -9 28 0 24 1 25 9 7 5 -11 9 -23 9 -27z m-2789 -8 c0 -5 -2 -10 -4
-10 -3 0 -8 5 -11 10 -3 6 -1 10 4 10 6 0 11 -4 11 -10z m242 -10 c22 -11 46
-16 52 -13 6 4 40 8 76 9 36 1 79 5 95 8 17 3 22 3 11 0 -10 -3 -32 -19 -48
-35 -23 -21 -37 -27 -54 -23 -16 4 -24 2 -24 -6 0 -10 -3 -10 -15 0 -8 6 -23
9 -33 6 -12 -4 -25 1 -37 14 -20 22 -50 26 -61 8 -4 -6 1 -17 11 -25 17 -11
17 -13 2 -13 -10 0 -14 -5 -11 -15 4 -8 2 -15 -4 -15 -5 0 -12 9 -15 20 -3 11
-17 24 -32 30 -29 11 -24 35 6 27 19 -5 47 18 35 30 -3 3 -6 1 -6 -6 0 -7 -4
-9 -10 -6 -15 9 -12 25 5 25 9 0 34 -9 57 -20z m75 -102 c-3 -8 -6 -5 -6 6 -1
11 2 17 5 13 3 -3 4 -12 1 -19z m-37 2 c0 -5 -2 -10 -4 -10 -3 0 -8 5 -11 10
-3 6 -1 10 4 10 6 0 11 -4 11 -10z m-25 -140 c3 -5 2 -10 -4 -10 -5 0 -13 5
-16 10 -3 6 -2 10 4 10 5 0 13 -4 16 -10z m-102 -79 c5 -5 1 -11 -8 -15 -10
-3 -14 -2 -10 4 4 7 -3 9 -20 6 -30 -6 -55 2 -55 16 0 12 80 2 93 -11z m801
-461 c24 -9 24 -9 10 -57 -8 -26 -24 -86 -37 -133 -22 -83 -23 -86 -66 -107
-56 -28 -72 -43 -46 -43 45 0 72 -64 43 -103 -7 -10 -28 -19 -46 -21 -66 -9
-98 72 -46 113 15 12 21 21 13 21 -8 0 -6 5 6 13 10 8 15 19 11 25 -4 7 -3 12
2 12 6 0 8 9 5 20 -3 11 0 27 7 35 8 9 10 28 6 48 -4 22 -3 27 3 17 9 -12 11
-12 16 2 9 24 2 63 -12 61 -6 -1 -9 5 -8 15 14 70 16 75 28 63 6 -6 16 -11 22
-11 5 0 3 5 -5 10 -13 8 -12 10 3 10 9 0 17 7 17 16 0 17 19 15 74 -6z m-147
-42 c-3 -8 -6 -5 -6 6 -1 11 2 17 5 13 3 -3 4 -12 1 -19z m-13 -124 c3 -8 2
-12 -4 -9 -6 3 -10 10 -10 16 0 14 7 11 14 -7z m-17 -76 c-3 -7 -5 -2 -5 12 0
14 2 19 5 13 2 -7 2 -19 0 -25z m-673 -63 c-4 -8 -8 -15 -10 -15 -2 0 -4 7 -4
15 0 8 4 15 10 15 5 0 7 -7 4 -15z m123 -180 c0 -8 -4 -15 -9 -15 -4 0 -8 7
-8 15 0 8 4 15 8 15 5 0 9 -7 9 -15z m-143 -150 c3 -9 0 -15 -8 -15 -7 0 -13
7 -13 15 0 8 4 15 8 15 4 0 9 -7 13 -15z m-150 -160 c-4 -8 -10 -15 -15 -15
-4 0 -6 7 -3 15 4 8 10 15 15 15 4 0 6 -7 3 -15z m276 -17 c0 -12 -3 -18 -7
-14 -11 10 -12 36 -2 36 5 0 9 -10 9 -22z m-147 -144 c8 -8 -3 -34 -14 -34 -5
0 -9 9 -9 20 0 19 11 26 23 14z m-146 -179 c0 -8 -6 -15 -12 -15 -6 0 -12 7
-12 15 0 8 6 15 12 15 6 0 12 -7 12 -15z m279 -10 c1 -8 -2 -15 -7 -15 -5 0
-9 10 -9 22 0 23 12 17 16 -7z m-142 -160 c3 -10 -1 -15 -13 -15 -10 0 -18 7
-18 15 0 8 6 15 13 15 6 0 14 -7 18 -15z"/>
<path d="M3498 3573 c7 -3 16 -2 19 1 4 3 -2 6 -13 5 -11 0 -14 -3 -6 -6z"/>
<path d="M2662 3014 c10 -10 20 -16 22 -13 3 3 -5 11 -17 18 -21 13 -21 12 -5
-5z"/>
<path d="M2781 2824 c0 -11 3 -14 6 -6 3 7 2 16 -1 19 -3 4 -6 -2 -5 -13z"/>
<path d="M3250 2795 c0 -15 4 -24 10 -20 6 3 10 12 10 20 0 8 -4 17 -10 20 -6
4 -10 -5 -10 -20z"/>
<path d="M2991 2774 c0 -11 3 -14 6 -6 3 7 2 16 -1 19 -3 4 -6 -2 -5 -13z"/>
<path d="M3041 2664 c0 -11 3 -14 6 -6 3 7 2 16 -1 19 -3 4 -6 -2 -5 -13z"/>
<path d="M2977 2642 c-13 -14 -14 -21 -5 -30 9 -9 6 -12 -15 -12 -17 0 -27 -5
-27 -15 0 -8 7 -15 16 -15 20 0 77 57 72 72 -7 20 -23 20 -41 0z"/>
<path d="M3340 2589 c0 -5 5 -7 10 -4 6 3 10 8 10 11 0 2 -4 4 -10 4 -5 0 -10
-5 -10 -11z"/>
<path d="M3410 2540 c0 -5 5 -10 11 -10 5 0 7 5 4 10 -3 6 -8 10 -11 10 -2 0
-4 -4 -4 -10z"/>
<path d="M2947 2415 c-4 -8 -2 -17 3 -20 6 -4 10 3 10 14 0 25 -6 27 -13 6z"/>
<path d="M3730 3020 c0 -5 5 -10 10 -10 6 0 10 5 10 10 0 6 -4 10 -10 10 -5 0
-10 -4 -10 -10z"/>
<path d="M3745 2960 c-3 -5 -1 -10 4 -10 6 0 11 5 11 10 0 6 -2 10 -4 10 -3 0
-8 -4 -11 -10z"/>
<path d="M3692 2640 c0 -14 2 -19 5 -12 2 6 2 18 0 25 -3 6 -5 1 -5 -13z"/>
<path d="M3701 1041 c-7 -5 -10 -14 -7 -20 4 -6 3 -11 -3 -11 -6 0 -8 -7 -4
-15 8 -22 26 -13 28 13 2 27 16 42 22 24 3 -6 8 -10 11 -8 4 2 8 -6 8 -18 1
-16 -4 -22 -19 -22 -25 1 -34 -19 -12 -28 9 -3 24 3 37 16 40 40 -12 101 -61
69z"/>
</g>
</svg>
